<svg width="900" height="600" viewBox="0 0 900 600" fill="none" xmlns="http://www.w3.org/2000/svg"><path fill="transparent" d="M0 0h900v600H0z"/><path d="m614.328 196.982.236 12.171.007.29a2.901 2.901 0 0 0 2.641 2.824l10.13.894c.168.015.33.042.485.084 1.085.301 1.935 1.206 2.085 2.342a50.644 50.644 0 0 0 6.796 18.861c.143.241.246.496.316.752a2.954 2.954 0 0 1-.753 2.799l-6.019 5.99a2.952 2.952 0 0 0-.697 2.985c.111.307.267.617.488.896l7.778 9.692a2.966 2.966 0 0 0 3.969.597l9.379-6.299a2.867 2.867 0 0 1 3.074-.076 53.262 53.262 0 0 0 4.277 2.25 50.632 50.632 0 0 0 8.431 3.062l.013.006a2.919 2.919 0 0 1 2.175 2.526l1.206 11.393.067.572a2.855 2.855 0 0 0 2.904 2.565l12.45-.251c1.514-.042 2.774-1.203 2.91-2.715l1.013-11.27a2.893 2.893 0 0 1 2.223-2.573 50.96 50.96 0 0 0 14.493-6.044 2.911 2.911 0 0 1 3.566.44l7.107 7.106a2.964 2.964 0 0 0 3.96.209l9.752-7.81a2.833 2.833 0 0 0 .58-3.787l-7.381-11.019a2.966 2.966 0 0 1-.112-3.124 51.554 51.554 0 0 0 4.714-11.053 2.822 2.822 0 0 1 2.443-2.058l13.708-1.446a2.918 2.918 0 0 0 2.607-2.951l-.232-12.487a2.924 2.924 0 0 0-2.225-2.757c-.131-.03-.273-.064-.415-.067l-12.509-1.114a2.878 2.878 0 0 1-2.515-1.969c-.035-.096-.07-.191-.085-.294-.066-.302-.124-.584-.222-.884a50.633 50.633 0 0 0-3.643-10.196c-.544-1.081-.307-2.402.573-3.264l7.515-7.519a2.96 2.96 0 0 0 .206-3.946l-1.726-2.158-6.044-7.515c-.941-1.187-2.637-1.437-3.905-.598l-9.238 6.205c-.984.671-2.267.629-3.234-.062a51.162 51.162 0 0 0-14.882-7.361l-.249-2.392-1.041-9.809a2.816 2.816 0 0 0-2.154-2.47 2.58 2.58 0 0 0-.743-.076l-12.534.228a2.937 2.937 0 0 0-2.834 2.654l-.679 7.702a2.912 2.912 0 0 1-2.41 2.599 51.089 51.089 0 0 0-15.3 5.015c-1.133.584-2.486.382-3.342-.509l-8.985-8.984a2.805 2.805 0 0 0-3.727-.196l-9.846 7.911c-1.169.933-1.423 2.598-.592 3.813l7.682 11.462c.67.982.659 2.264-.013 3.256a49.128 49.128 0 0 0-3.83 6.789 50.972 50.972 0 0 0-1.64 3.912 2.931 2.931 0 0 1-2.409 1.883l-13.142 1.391a2.957 2.957 0 0 0-2.652 2.977zm51.318 34.455c-2.871-1.753-5.562-4.091-7.975-7.063-.519-.625-1.022-1.384-1.514-2.204-2.073-3.56-3.611-8.463-3.665-12.052-.367-27.457 31.507-39.357 49.181-18.856.286.341.573.68.853 1.035 2.632 3.281 4.85 9.454 4.951 13.655a33.95 33.95 0 0 1-.436 6.303c-3.396 19.926-25.031 29.159-41.395 19.182z" fill="url(#a)"/><path d="m572.4 134.372.146 7.514.004.179a1.79 1.79 0 0 0 1.63 1.743l6.253.552c.104.009.204.026.3.052.67.185 1.194.744 1.287 1.446a31.245 31.245 0 0 0 4.195 11.642c.088.149.152.306.195.465a1.822 1.822 0 0 1-.465 1.728l-3.715 3.697a1.824 1.824 0 0 0-.431 1.843c.069.189.165.381.301.553l4.802 5.983a1.831 1.831 0 0 0 2.45.368l5.789-3.888a1.768 1.768 0 0 1 1.898-.047 31.3 31.3 0 0 0 7.845 3.279l.008.004a1.8 1.8 0 0 1 1.342 1.559l.745 7.033.041.353c.087.905.87 1.604 1.793 1.583l7.685-.155a1.85 1.85 0 0 0 1.797-1.676l.625-6.956a1.786 1.786 0 0 1 1.373-1.589 31.452 31.452 0 0 0 8.946-3.731 1.797 1.797 0 0 1 2.201.272l4.387 4.386a1.83 1.83 0 0 0 2.445.129l6.019-4.821a1.748 1.748 0 0 0 .358-2.338l-4.555-6.801a1.832 1.832 0 0 1-.07-1.929 31.794 31.794 0 0 0 2.91-6.823 1.742 1.742 0 0 1 1.508-1.27l8.462-.893a1.802 1.802 0 0 0 1.61-1.822l-.144-7.708a1.805 1.805 0 0 0-1.374-1.702c-.08-.018-.168-.039-.255-.041l-7.722-.688a1.776 1.776 0 0 1-1.553-1.215c-.021-.06-.043-.118-.052-.182-.041-.186-.077-.36-.137-.545a31.238 31.238 0 0 0-2.249-6.294 1.734 1.734 0 0 1 .354-2.015l4.638-4.641a1.827 1.827 0 0 0 .128-2.436l-1.066-1.333-3.731-4.639a1.802 1.802 0 0 0-2.41-.369l-5.703 3.831a1.737 1.737 0 0 1-1.996-.039 31.585 31.585 0 0 0-9.187-4.544l-.153-1.476-.643-6.055a1.737 1.737 0 0 0-1.789-1.572l-7.736.141a1.813 1.813 0 0 0-1.75 1.638l-.419 4.755a1.798 1.798 0 0 1-1.488 1.604 31.546 31.546 0 0 0-9.445 3.095c-.699.361-1.534.236-2.062-.314l-5.547-5.545a1.732 1.732 0 0 0-2.301-.121l-6.078 4.883a1.752 1.752 0 0 0-.365 2.354l4.742 7.075a1.78 1.78 0 0 1-.008 2.01 30.348 30.348 0 0 0-2.364 4.191 31.848 31.848 0 0 0-1.013 2.415 1.812 1.812 0 0 1-1.487 1.163l-8.112.858c-.941.1-1.646.891-1.637 1.837zm31.679 21.27c-1.773-1.083-3.434-2.526-4.923-4.36a10.976 10.976 0 0 1-.935-1.361c-1.28-2.198-2.23-5.224-2.263-7.439-.226-16.95 19.45-24.296 30.36-11.64.176.21.353.42.526.638 1.625 2.026 2.994 5.837 3.057 8.43.031 1.36-.067 2.66-.27 3.891-2.096 12.3-15.451 18-25.552 11.841z" fill="url(#b)"/><path d="m156.22 250.899.195 10.028.006.238a2.39 2.39 0 0 0 2.175 2.327l8.347.737c.138.013.272.035.4.07.893.247 1.594.993 1.718 1.929a41.708 41.708 0 0 0 5.599 15.54c.117.199.202.409.26.62a2.43 2.43 0 0 1-.621 2.306l-4.959 4.935a2.434 2.434 0 0 0-.574 2.459c.091.253.22.509.402.739l6.409 7.986a2.444 2.444 0 0 0 3.27.491l7.727-5.19a2.363 2.363 0 0 1 2.533-.063 41.624 41.624 0 0 0 10.471 4.377l.01.005a2.404 2.404 0 0 1 1.792 2.081l.994 9.387.055.472a2.353 2.353 0 0 0 2.393 2.113l10.257-.207a2.471 2.471 0 0 0 2.399-2.237l.834-9.285a2.38 2.38 0 0 1 1.832-2.12 41.98 41.98 0 0 0 11.94-4.98 2.398 2.398 0 0 1 2.938.362l5.857 5.855a2.442 2.442 0 0 0 3.262.173l8.035-6.436a2.334 2.334 0 0 0 .477-3.12l-6.08-9.078a2.446 2.446 0 0 1-.093-2.575 42.546 42.546 0 0 0 3.884-9.106 2.326 2.326 0 0 1 2.013-1.696l11.294-1.191a2.405 2.405 0 0 0 2.148-2.432l-.191-10.288a2.41 2.41 0 0 0-1.834-2.272c-.107-.024-.224-.052-.341-.055l-10.307-.917a2.371 2.371 0 0 1-2.072-1.623c-.028-.079-.057-.157-.069-.242-.055-.249-.103-.481-.184-.728a41.636 41.636 0 0 0-3.001-8.401c-.449-.891-.254-1.979.472-2.69l6.191-6.194c.88-.874.95-2.284.17-3.251l-1.422-1.779-4.98-6.191c-.775-.978-2.172-1.185-3.217-.493l-7.612 5.112c-.81.553-1.867.518-2.664-.051a42.107 42.107 0 0 0-12.262-6.065l-.205-1.97-.857-8.083a2.318 2.318 0 0 0-1.775-2.034 2.11 2.11 0 0 0-.613-.063l-10.326.188a2.422 2.422 0 0 0-2.336 2.187l-.558 6.345a2.402 2.402 0 0 1-1.986 2.142 42.074 42.074 0 0 0-12.606 4.131c-.934.482-2.049.315-2.754-.419l-7.403-7.402a2.312 2.312 0 0 0-3.071-.161l-8.112 6.518a2.335 2.335 0 0 0-.487 3.142l6.329 9.443a2.379 2.379 0 0 1-.011 2.683 40.562 40.562 0 0 0-3.156 5.593 42.093 42.093 0 0 0-1.351 3.224 2.417 2.417 0 0 1-1.985 1.551l-10.828 1.146a2.436 2.436 0 0 0-2.185 2.453zm42.283 28.389c-2.366-1.445-4.584-3.372-6.571-5.82-.428-.515-.843-1.14-1.248-1.816-1.708-2.934-2.975-6.973-3.02-9.93-.302-22.623 25.96-32.427 40.522-15.536.235.281.472.561.702.853 2.169 2.703 3.996 7.79 4.08 11.25a27.917 27.917 0 0 1-.36 5.194c-2.798 16.417-20.623 24.025-34.105 15.805z" fill="url(#c)"/><path d="m442.729 122.893-1.866 12.03-.043.287a2.9 2.9 0 0 0 2.114 3.237l9.824 2.628c.163.043.318.098.463.166 1.017.483 1.698 1.521 1.65 2.667a50.636 50.636 0 0 0 3.442 19.749c.099.263.157.532.181.796a2.951 2.951 0 0 1-1.224 2.627l-6.962 4.863a2.953 2.953 0 0 0-1.201 2.82c.056.321.157.654.326.966l5.99 10.889a2.967 2.967 0 0 0 3.807 1.272l10.324-4.588a2.868 2.868 0 0 1 3.042.456 50.518 50.518 0 0 0 11.602 7.423l.011.009a2.919 2.919 0 0 1 1.707 2.863l-.777 11.43-.033.576a2.855 2.855 0 0 0 2.419 3.026l12.306 1.9c1.499.22 2.941-.706 3.336-2.172l2.94-10.927a2.894 2.894 0 0 1 2.634-2.151 50.95 50.95 0 0 0 15.318-3.454 2.91 2.91 0 0 1 3.436 1.048l5.776 8.225a2.965 2.965 0 0 0 3.865.889l10.952-6.012a2.833 2.833 0 0 0 1.224-3.63l-5.369-12.126a2.968 2.968 0 0 1 .427-3.097 51.558 51.558 0 0 0 6.55-10.075 2.821 2.821 0 0 1 2.761-1.605l13.752.939a2.918 2.918 0 0 0 3.077-2.457l1.925-12.34a2.926 2.926 0 0 0-1.717-3.1c-.123-.051-.257-.11-.397-.137l-12.13-3.254a2.878 2.878 0 0 1-2.137-2.374c-.018-.101-.036-.2-.033-.304-.013-.308-.022-.597-.067-.909a50.525 50.525 0 0 0-1.83-10.671c-.349-1.159.112-2.42 1.128-3.117l8.698-6.11a2.958 2.958 0 0 0 .884-3.851l-1.328-2.424-4.658-8.445c-.722-1.331-2.349-1.87-3.743-1.262l-10.17 4.519c-1.084.492-2.341.228-3.174-.619a51.266 51.266 0 0 0-7.267-6.152 50.561 50.561 0 0 0-6.124-3.665l.168-2.398.667-9.843a2.816 2.816 0 0 0-1.696-2.803 2.566 2.566 0 0 0-.72-.204l-12.385-1.937a2.94 2.94 0 0 0-3.25 2.126l-1.996 7.47a2.913 2.913 0 0 1-2.822 2.144 51.088 51.088 0 0 0-15.936 2.301c-1.217.38-2.515-.052-3.204-1.077l-7.302-10.399a2.806 2.806 0 0 0-3.637-.836l-11.062 6.095c-1.313.718-1.85 2.314-1.241 3.654l5.591 12.615a2.886 2.886 0 0 1-.574 3.205 49.111 49.111 0 0 0-4.944 6.027 50.696 50.696 0 0 0-2.29 3.57 2.934 2.934 0 0 1-2.698 1.44l-13.185-.896a2.957 2.957 0 0 0-3.125 2.474zm44.608 42.789c-2.526-2.222-4.774-4.989-6.638-8.333-.404-.705-.768-1.539-1.111-2.431-1.428-3.865-2.098-8.96-1.532-12.504 4.373-27.109 37.822-33.335 51.696-10.093.222.385.446.769.661 1.166 2.027 3.687 3.147 10.15 2.523 14.305a33.992 33.992 0 0 1-1.517 6.134c-6.781 19.041-29.684 24.406-44.082 11.756z" fill="url(#d)"/><rect x="214.584" y="166" width="470.416" height="315.221" rx="28" fill="#fff" stroke="#E1E4E5" stroke-width="4"/><circle cx="251.068" cy="191.128" r="6.94" fill="#E1E4E5"/><circle cx="275.041" cy="191.128" r="6.94" fill="#E1E4E5"/><circle cx="299.014" cy="191.128" r="6.94" fill="#E1E4E5"/><path d="M190.939 346.984c3.052 17.125 20.826 32.186 20.826 32.186s14.571-20.835 11.519-37.96c-3.064-17.128-12.771-29.719-21.705-28.119-8.932 1.587-13.692 16.768-10.64 33.893zm39.133 29.748c-11.913 12.671-13.382 35.916-13.382 35.916s25.406-.734 37.323-13.416c11.916-12.682 16.215-27.986 9.596-34.198-6.608-6.209-21.623-.972-33.537 11.698zm-14.236 87.737c-.537 2.972-.749 5.054-.804 5.583-.004.061-.016.107-.011.133l-.003.012s.012.003.015-.008l.083.01c.276-.013 1.099-.04 2.343-.114 6.655-.43 25.262-2.504 35.128-12.607 12.15-12.447 16.728-27.688 10.238-34.014-6.486-6.337-21.598-1.386-33.748 11.06-5.439 5.578-8.83 13.299-10.901 20.15a83.866 83.866 0 0 0-2.34 9.795zm-37.221-56.311c15.136 8.568 38.072 4.501 38.072 4.501s-6.745-24.519-21.882-33.087c-15.137-8.569-31.025-9.117-35.5-1.229-4.478 7.9 4.173 21.246 19.31 29.815z" fill="#E1E4E5"/><path d="M180.314 461.659c14.158 10.099 37.389 8.436 37.389 8.436s-4.157-25.087-18.315-35.186c-14.158-10.099-29.912-12.305-35.181-4.914-5.269 7.391 1.938 21.562 16.107 31.664z" fill="#E1E4E5"/><path d="M208.766 372.136c.083.244 6.785 23.911 4.48 84.097a740.24 740.24 0 0 1-.661 13.819l.292.016 2.145.118.003-.012.012.003.083.01c.276-.013 1.099-.039 2.343-.114.308-5.394.545-10.524.717-15.411 2.179-59.811-4.443-82.9-4.735-83.931l-4.679 1.405zm500.268-25.152c-3.052 17.125-20.825 32.186-20.825 32.186s-14.571-20.835-11.519-37.96c3.063-17.128 12.77-29.719 21.705-28.119 8.931 1.587 13.691 16.768 10.639 33.893zM669.9 376.732c11.914 12.671 13.382 35.916 13.382 35.916s-25.406-.734-37.322-13.416c-11.917-12.682-16.215-27.986-9.596-34.198 6.607-6.209 21.623-.972 33.536 11.698zm14.237 87.737c.537 2.972.748 5.054.804 5.583.004.061.016.107.011.133l.003.012s-.012.003-.015-.008l-.084.01c-.275-.013-1.098-.04-2.342-.114-6.656-.43-25.262-2.504-35.128-12.607-12.15-12.447-16.728-27.688-10.239-34.014 6.487-6.337 21.599-1.386 33.749 11.06 5.438 5.578 8.83 13.299 10.901 20.15a83.866 83.866 0 0 1 2.34 9.795zm37.221-56.311c-15.137 8.568-38.073 4.501-38.073 4.501s6.746-24.519 21.883-33.087c15.136-8.569 31.025-9.117 35.5-1.229 4.478 7.9-4.173 21.246-19.31 29.815z" fill="#E1E4E5"/><path d="M719.658 461.659c-14.158 10.099-37.389 8.436-37.389 8.436s4.158-25.087 18.315-35.186c14.158-10.099 29.912-12.305 35.181-4.914 5.269 7.391-1.938 21.562-16.107 31.664z" fill="#E1E4E5"/><path d="M691.207 372.136c-.083.244-6.785 23.911-4.481 84.097.167 4.407.39 9.02.662 13.819l-.293.016-2.144.118-.003-.012-.012.003-.084.01c-.275-.013-1.098-.039-2.342-.114a706.123 706.123 0 0 1-.717-15.411c-2.18-59.811 4.442-82.9 4.735-83.931l4.679 1.405zm-76.848 26.943c-1.793 10.061-12.235 18.909-12.235 18.909s-8.561-12.24-6.768-22.302c1.8-10.063 7.503-17.46 12.752-16.52 5.248.933 8.044 9.851 6.251 19.913zm-22.992 17.477c6.999 7.444 7.862 21.101 7.862 21.101s-14.926-.431-21.928-7.882c-7.001-7.451-9.526-16.442-5.637-20.092 3.882-3.647 12.703-.571 19.703 6.873zm8.365 51.547c.315 1.746.439 2.969.472 3.28.002.035.009.063.006.078l.002.007s-.007.002-.009-.005l-.049.006c-.162-.008-.645-.024-1.376-.067-3.91-.253-14.842-1.471-20.638-7.407-7.138-7.312-9.828-16.267-6.015-19.983 3.81-3.724 12.689-.815 19.827 6.498 3.195 3.277 5.188 7.813 6.405 11.838a49.404 49.404 0 0 1 1.375 5.755zm21.867-33.084c-8.893 5.034-22.368 2.645-22.368 2.645s3.963-14.406 12.856-19.44c8.893-5.034 18.228-5.356 20.857-.722 2.631 4.642-2.452 12.483-11.345 17.517z" fill="#E1E4E5"/><path d="M620.601 466.452c-8.318 5.933-21.967 4.956-21.967 4.956s2.443-14.739 10.761-20.672c8.318-5.934 17.573-7.23 20.669-2.887 3.095 4.342-1.139 12.667-9.463 18.603z" fill="#E1E4E5"/><path d="M603.884 413.856c-.048.143-3.986 14.048-2.632 49.408.098 2.589.229 5.299.389 8.118l-.172.01-1.26.069-.002-.007-.007.002-.049.006c-.162-.007-.645-.023-1.376-.067-.181-3.169-.32-6.183-.421-9.054-1.281-35.14 2.61-48.705 2.782-49.311l2.748.826zm-276.525-25.777c-1.793 10.061-12.235 18.909-12.235 18.909s-8.561-12.24-6.768-22.302c1.8-10.063 7.503-17.46 12.752-16.52 5.248.933 8.044 9.851 6.251 19.913zm-22.992 17.477c6.999 7.444 7.862 21.101 7.862 21.101s-14.926-.431-21.928-7.882c-7.001-7.451-9.526-16.442-5.637-20.092 3.882-3.647 12.703-.571 19.703 6.873zm8.365 51.547c.315 1.746.439 2.969.472 3.28.002.035.009.063.006.078l.002.007s-.007.002-.009-.005l-.049.006c-.162-.008-.645-.024-1.376-.067-3.91-.253-14.842-1.471-20.638-7.407-7.138-7.312-9.828-16.267-6.015-19.983 3.81-3.724 12.689-.815 19.827 6.498 3.195 3.277 5.188 7.813 6.405 11.838a49.404 49.404 0 0 1 1.375 5.755zm21.867-33.084c-8.893 5.034-22.368 2.645-22.368 2.645s3.963-14.406 12.856-19.44c8.893-5.034 18.228-5.356 20.857-.722 2.631 4.642-2.452 12.483-11.345 17.517z" fill="#E1E4E5"/><path d="M333.601 455.452c-8.318 5.933-21.967 4.956-21.967 4.956s2.443-14.739 10.761-20.672c8.318-5.934 17.573-7.23 20.669-2.887 3.095 4.342-1.139 12.667-9.463 18.603z" fill="#E1E4E5"/><path d="M316.884 402.856c-.048.143-3.986 14.048-2.632 49.408.098 2.589.229 5.299.389 8.118l-.172.01-1.26.069-.002-.007-.007.002-.049.006c-.162-.007-.645-.023-1.376-.067-.181-3.169-.32-6.183-.421-9.054-1.281-35.14 2.61-48.705 2.782-49.311l2.748.826z" fill="#E1E4E5"/><path d="M546.451 255h97.045M247 255h227.362M247 305.125h65.449m59.321.875h271.725m-97.044 50h97.045M247 356h227.362M247 405.125h65.449m59.321.875h271.725" opacity=".2" stroke="#E1E4E5" stroke-width="26.889" stroke-miterlimit="10" stroke-linecap="round" stroke-linejoin="round"/><path d="M522.966 304.308c0-40.078-32.6-72.585-72.793-72.585-40.193 0-72.958 32.754-72.792 72.831.082 19.916 8.17 37.938 21.21 51.023 10.151 10.205 17.662 22.714 21.376 36.622l5.859 21.643h47.704l5.529-20.491c3.879-14.155 11.555-26.993 22.036-37.28 13.535-13.249 21.871-31.519 21.871-51.763z" fill="#fe3f40"/><path d="M449.846 438.999c-12.601 0-22.842-10.219-22.842-22.77v-3.761h45.684v3.761c0 12.629-10.237 22.77-22.842 22.77z" fill="#fff" stroke="#E1E4E5" stroke-width="4"/><path d="M474.848 421.99h-50.096c-1.073 0-1.898-.823-1.898-1.893s.825-1.893 1.898-1.893h50.096c1.073 0 1.899.823 1.899 1.893 0 .987-.908 1.893-1.899 1.893zm.33 8.065h-50.096c-1.073 0-1.898-.823-1.898-1.893s.825-1.893 1.898-1.893h50.096c1.073 0 1.899.823 1.899 1.893 0 .987-.826 1.893-1.899 1.893z" fill="#E1E4E5"/><path d="M361.779 301.098h-19.065a3.693 3.693 0 0 1-3.714-3.703 3.693 3.693 0 0 1 3.714-3.703h19.065a3.693 3.693 0 0 1 3.714 3.703 3.693 3.693 0 0 1-3.714 3.703zm5.857-34.152-16.919-8.806c-1.816-.905-2.476-3.127-1.568-4.938.908-1.81 3.136-2.468 4.952-1.563l16.919 8.805c1.815.906 2.476 3.128 1.568 4.938-.908 1.811-3.136 2.551-4.952 1.564zm20.633-28.228-13.535-13.496c-1.403-1.399-1.403-3.786 0-5.185 1.403-1.399 3.796-1.399 5.199 0l13.536 13.497c1.403 1.399 1.403 3.785 0 5.184-1.486 1.399-3.797 1.399-5.2 0zm23.355-17.94-6.602-17.858c-.66-1.893.247-4.032 2.146-4.691 1.898-.658 4.044.247 4.704 2.14l6.602 17.858c.743 1.975-.247 4.032-2.145 4.773-1.899.658-4.044-.329-4.705-2.222zm127.594 77.852h19.065a3.693 3.693 0 0 0 3.714-3.703 3.694 3.694 0 0 0-3.714-3.704h-19.065a3.694 3.694 0 0 0-3.714 3.704c.082 2.057 1.733 3.703 3.714 3.703zm-5.853-34.07 16.918-8.806c1.816-.905 2.476-3.127 1.569-4.938-.908-1.81-3.137-2.468-4.952-1.563l-16.919 8.805c-1.816.906-2.476 3.128-1.568 4.938.99 1.811 3.136 2.469 4.952 1.564zm-20.633-28.31 13.535-13.496c1.403-1.399 1.403-3.786 0-5.185-1.403-1.399-3.796-1.399-5.199 0l-13.535 13.496c-1.403 1.399-1.403 3.786 0 5.185 1.485 1.481 3.796 1.481 5.199 0zm-23.358-17.858 6.602-17.858c.661-1.893-.247-4.032-2.145-4.691-1.899-.658-4.044.247-4.705 2.14l-6.602 17.858c-.66 1.893.247 4.032 2.146 4.691 1.898.74 4.044-.247 4.704-2.14zm-42.922-5.679v-19.01a3.693 3.693 0 0 1 3.714-3.703 3.693 3.693 0 0 1 3.714 3.703v19.01a3.694 3.694 0 0 1-3.714 3.704 3.694 3.694 0 0 1-3.714-3.704z" fill="#fe3f40"/><path d="M440.241 352.113c-1.136-10.913-3.013-20.66-5.999-26.467-2.634-5.122-6.791-8.823-11.022-10.036a10.558 10.558 0 0 0-2.799-.398c-1.423 0-2.723.344-3.875 1.021-1.476.876-2.732 2.636-3.51 4.965-.772 2.312-1.036 5.081-.621 7.821l27.826 23.094zm0 0c-18.338-3.032-26.361-13.456-27.826-23.093l27.826 23.093zm17.757 56.434.045.953h3.494l-.041-1.039-.001-.043c-.054-1.307-1.188-29.083.945-52.986 20.28-3.057 29.624-14.696 31.319-25.92.502-3.329.182-6.66-.797-9.486-.974-2.815-2.632-5.211-4.875-6.544-2.676-1.598-5.875-1.891-9.197-.941-5.199 1.479-10.019 5.883-13.003 11.656v.002c-3.346 6.497-5.308 17.058-6.456 28.393a72.281 72.281 0 0 1-7.934.415c-2.824 0-5.461-.142-7.933-.415-1.148-11.35-3.11-21.896-6.456-28.393l-.001-.002c-2.983-5.773-7.803-10.176-13.001-11.656-3.322-.949-6.52-.657-9.197.94-2.252 1.333-3.91 3.73-4.883 6.545-.976 2.827-1.292 6.158-.79 9.486 1.694 11.209 11.039 22.847 31.319 25.92 2.133 23.902.998 51.678.945 52.986l-.002.043-.04 1.039h3.493l.045-.953c.081-1.713.978-28.846-1.113-52.725 2.399.231 4.95.362 7.631.362 2.676 0 5.226-.119 7.629-.357-2.091 23.878-1.226 51.021-1.145 52.72zm4.772-56.418c1.136-10.914 3.013-20.673 5.998-26.465 2.654-5.129 6.798-8.844 11.025-10.039l.007-.001a9.944 9.944 0 0 1 2.79-.412c1.423 0 2.721.344 3.869 1.034l.005.003c1.476.875 2.732 2.635 3.511 4.965.772 2.312 1.036 5.081.621 7.821-1.464 9.623-9.489 20.062-27.826 23.094z" fill="#fff" stroke="#fff" stroke-width="2"/><path d="M507.53 301c-1.921 0-3.471-1.567-3.471-3.507 0-21.734-14.536-40.622-35.344-45.955a3.498 3.498 0 0 1-2.503-4.254c.469-1.883 2.361-3.019 4.21-2.53C494.316 250.863 511 272.553 511 297.493c0 1.94-1.55 3.507-3.47 3.507zm-48.06-50.985c1.917 0 3.471-1.571 3.471-3.508S461.387 243 459.47 243c-1.916 0-3.47 1.57-3.47 3.507s1.554 3.508 3.47 3.508z" fill="#fff"/><path d="M743.037 306.854c-12.775 11.07-34.653 6.76-34.653 6.76s-1.152-22.255 11.633-33.316c12.775-11.07 34.643-6.768 34.643-6.768s1.151 22.255-11.623 33.324z" fill="url(#e)"/><path d="M169.295 334.505c5.362 7.9 1.495 19.887 1.495 19.887s-12.56-.829-17.918-8.733c-5.363-7.9-1.501-19.882-1.501-19.882s12.561.829 17.924 8.728z" fill="url(#f)"/><path d="m422.792 492.98-311.736-.711a222.329 222.329 0 0 1 5.48-3.087c7.457-4.067 18.358-9.505 32.1-14.964 27.49-10.919 66.307-21.907 111.642-22.212 45.543-.305 86.467 10.313 116.869 21.307 15.196 5.495 27.751 11.08 36.929 15.432 3.372 1.6 6.288 3.032 8.716 4.235zm358.244-5-243.768-.544c.868-.484 1.823-1.007 2.863-1.563 5.905-3.157 14.541-7.379 25.429-11.618 21.782-8.481 52.537-17.014 88.453-17.25 36.082-.237 68.51 8.008 92.608 16.55a334.033 334.033 0 0 1 29.269 11.988c1.901.884 3.619 1.702 5.146 2.437z" fill="#fff" stroke="#E1E4E5" stroke-width="4"/><defs><linearGradient id="a" x1="604.979" y1="88.774" x2="790.514" y2="384.774" gradientUnits="userSpaceOnUse"><stop stop-color="#fff"/><stop offset="1" stop-color="#EEE"/></linearGradient><linearGradient id="b" x1="566.629" y1="67.576" x2="681.159" y2="250.296" gradientUnits="userSpaceOnUse"><stop stop-color="#fff"/><stop offset="1" stop-color="#EEE"/></linearGradient><linearGradient id="c" x1="148.517" y1="161.744" x2="301.384" y2="405.625" gradientUnits="userSpaceOnUse"><stop stop-color="#fff"/><stop offset="1" stop-color="#EEE"/></linearGradient><linearGradient id="d" x1="452.179" y1="14.694" x2="583.893" y2="338.254" gradientUnits="userSpaceOnUse"><stop stop-color="#fff"/><stop offset="1" stop-color="#EEE"/></linearGradient><linearGradient id="e" x1="692.622" y1="344.119" x2="788.751" y2="217.16" gradientUnits="userSpaceOnUse"><stop stop-color="#fff"/><stop offset="1" stop-color="#EEE"/></linearGradient><linearGradient id="f" x1="186.858" y1="365.255" x2="122.009" y2="302.919" gradientUnits="userSpaceOnUse"><stop stop-color="#fff"/><stop offset="1" stop-color="#EEE"/></linearGradient></defs></svg>